<?xml version="1.0" encoding="UTF-8"?>
<svg width="60px" height="46px" viewBox="0 0 60 46" version="1.1" xmlns="http://www.w3.org/2000/svg" xmlns:xlink="http://www.w3.org/1999/xlink">
    <!-- Generator: Sketch 53 (72520) - https://sketchapp.com -->
    <title>0_home_page_icon_user_experience</title>
    <desc>Created with Sketch.</desc>
    <g id="Playbook" stroke="none" stroke-width="1" fill="none" fill-rule="evenodd">
        <g id="0-Start-Page---version-4" transform="translate(-913.000000, -712.000000)">
            <g id="Row-1" transform="translate(195.000000, 696.000000)">
                <g id="03" transform="translate(718.000000, 16.000000)">
                    <g id="Agile">
                        <g id="0_home_page_icon_user_experience">
                            <path d="M60,7.54098361 L0,7.54098361 L0,3.125 C-2.11360547e-16,1.39911016 1.39911016,3.17040821e-16 3.125,0 L56.875,0 C58.6008898,-3.17040821e-16 60,1.39911016 60,3.125 L60,7.54098361 Z M60,9.04918033 L60,42.875 C60,44.6008898 58.6008898,46 56.875,46 L3.125,46 C1.39911016,46 2.11360547e-16,44.6008898 0,42.875 L0,9.04918033 L60,9.04918033 Z M6.6875,13.0081967 C5.65196609,13.0081967 4.8125,13.8476628 4.8125,14.8831967 L4.8125,32.8554189 C4.8125,33.8909528 5.65196609,34.7304189 6.6875,34.7304189 L53.9375,34.7304189 C54.9730339,34.7304189 55.8125,33.8909528 55.8125,32.8554189 L55.8125,14.8831967 C55.8125,13.8476628 54.9730339,13.0081967 53.9375,13.0081967 L6.6875,13.0081967 Z M5.8125,36.9508197 C5.26021525,36.9508197 4.8125,37.3985349 4.8125,37.9508197 L4.8125,40.4754098 C4.8125,41.0276946 5.26021525,41.4754098 5.8125,41.4754098 L54.8125,41.4754098 C55.3647847,41.4754098 55.8125,41.0276946 55.8125,40.4754098 L55.8125,37.9508197 C55.8125,37.3985349 55.3647847,36.9508197 54.8125,36.9508197 L5.8125,36.9508197 Z" id="Combined-Shape" fill="#2F4CB3"></path>
                            <ellipse id="Oval" fill="#FFFFFF" cx="5.3125" cy="4.79166667" rx="1" ry="1"></ellipse>
                            <ellipse id="Oval-Copy" fill="#FFFFFF" cx="7.8125" cy="4.79166667" rx="1" ry="1"></ellipse>
                            <ellipse id="Oval-Copy-2" fill="#FFFFFF" cx="10.3125" cy="4.79166667" rx="1" ry="1"></ellipse>
                        </g>
                    </g>
                </g>
            </g>
        </g>
    </g>
</svg>