<?xml version="1.0" encoding="UTF-8"?>
<svg width="43px" height="62px" viewBox="0 0 43 62" version="1.1" xmlns="http://www.w3.org/2000/svg" xmlns:xlink="http://www.w3.org/1999/xlink">
    <!-- Generator: Sketch 53 (72520) - https://sketchapp.com -->
    <title>0_home_page_icon_automatedtesting</title>
    <desc>Created with Sketch.</desc>
    <defs>
        <path d="M4.90180125,69.5020361 C4.66965839,69.5020361 4.43751553,69.4125476 4.2589441,69.2335707 C3.90180125,68.8756168 3.90180125,68.284993 4.2589441,67.9270391 L9.7589441,62.4145499 L4.24108696,56.9020607 C3.8839441,56.5441068 3.8839441,55.953483 4.24108696,55.5955291 C4.59822982,55.2375753 5.18751553,55.2375753 5.54465839,55.5955291 L11.7053727,61.770233 C12.0625155,62.1281868 12.0625155,62.7188107 11.7053727,63.0767645 L5.54465839,69.2335707 C5.36608696,69.4125476 5.1339441,69.5020361 4.90180125,69.5020361 Z" id="path-1"></path>
    </defs>
    <g id="Playbook" stroke="none" stroke-width="1" fill="none" fill-rule="evenodd">
        <g id="0-Start-Page---version-4" transform="translate(-555.000000, -705.000000)">
            <g id="Row-1" transform="translate(195.000000, 696.000000)">
                <g id="02" transform="translate(356.000000, 0.000000)">
                    <g id="automated-testing">
                        <g id="0_home_page_icon_automatedtesting" transform="translate(0.000000, 0.254098)">
                            <path d="M38.7622136,44.5438207 L35.3099076,41.4437908 C35.5212732,40.2460519 35.5212732,39.0483131 35.3099076,37.8505743 L38.6917584,34.6800891 C38.9031241,34.4687234 38.9735793,34.1164473 38.8326688,33.8346264 L36.7190121,30.3118651 C36.5781016,30.0300442 36.2258255,29.8891338 35.8735494,30.0300442 L31.5757806,31.5800592 C30.7303179,30.8755069 29.7439447,30.3118651 28.6871164,29.8891338 L27.7007432,25.3095441 C27.630288,24.957268 27.3484671,24.7459023 26.9961909,24.7459023 C26.9961909,24.7459023 26.9961909,24.7459023 26.9961909,24.7459023 L22.9097879,24.7459023 C22.5575117,24.7459023 22.2756908,24.957268 22.2052356,25.3095441 L21.2893177,29.8186785 C20.1620341,30.2414099 19.1756609,30.8050517 18.259743,31.5800592 L13.891519,30.1709547 C13.6096981,30.1004994 13.2574219,30.2414099 13.0460563,30.5232308 L11.07331,34.1164473 C10.9323995,34.3982682 11.0028547,34.7505443 11.2142204,34.96191 L14.6665265,37.9914847 C14.4551608,39.1892235 14.4551608,40.3869624 14.7369817,41.5847012 L11.3551309,44.7551864 C11.1437652,44.966552 11.07331,45.3188282 11.2142204,45.6006491 L13.3278772,49.1234103 C13.4687876,49.4052312 13.8210638,49.5461417 14.1733399,49.4052312 L18.4711086,47.9256715 C19.3165713,48.6302238 20.3029445,49.1938656 21.3597729,49.6165969 L22.3461461,54.1961866 C22.4166013,54.5484627 22.6984222,54.7598284 23.0506983,54.7598284 C23.0506983,54.7598284 23.0506983,54.7598284 23.0506983,54.7598284 L27.1371014,54.7598284 C27.4893775,54.7598284 27.7711984,54.5484627 27.8416536,54.1961866 L28.7575716,49.6870522 C29.8848552,49.2643208 30.8712283,48.6302238 31.7871463,47.9256715 L36.1553703,49.334776 C36.5076464,49.4052312 36.7894673,49.2643208 37.000833,48.9824999 L38.9735793,45.3892834 C39.0440345,45.1074625 38.9735793,44.7551864 38.7622136,44.5438207 Z M25.0234446,45.0370073 C22.1347804,45.0370073 19.8097579,42.6415296 19.8097579,39.7528653 C19.8097579,36.8642011 22.1347804,34.4687234 25.0234446,34.4687234 C27.8416536,34.4687234 30.2371313,36.7937459 30.2371313,39.7528653 C30.1666761,42.6415296 27.8416536,45.0370073 25.0234446,45.0370073 Z" id="Shape" fill="#2F4CB3" fill-rule="nonzero"></path>
                            <path d="M37.5,5.56823276 C23.6928813,5.56823276 12.5,16.761114 12.5,30.5682328" id="Shape" stroke="#2F4CB3" stroke-width="4" stroke-linecap="round" transform="translate(25.000000, 18.068233) rotate(-315.000000) translate(-25.000000, -18.068233) "></path>
                            <path d="M13.1169418,73.9128031 L13.1169418,73.9128031 C26.9240605,73.9128031 38.1169418,62.7199218 38.1169418,48.9128031" id="Path" stroke="#2F4CB3" stroke-width="4" stroke-linecap="round" transform="translate(25.616942, 61.412803) rotate(43.000000) translate(-25.616942, -61.412803) "></path>
                            <path d="M39.9290513,25.4533145 C39.6969084,25.4533145 39.4647655,25.363826 39.2861941,25.1848491 C38.9290513,24.8268953 38.9290513,24.2362714 39.2861941,23.8783176 L44.7861941,18.3658284 L39.268337,12.8533391 C38.9111941,12.4953853 38.9111941,11.9047614 39.268337,11.5468076 C39.6254798,11.1888537 40.2147655,11.1888537 40.5719084,11.5468076 L46.7326227,17.7215114 C47.0897655,18.0794653 47.0897655,18.6700891 46.7326227,19.028043 L40.5719084,25.1848491 C40.393337,25.363826 40.1611941,25.4533145 39.9290513,25.4533145 Z" id="icon/pageRight" stroke="#2F4CB3" fill="#2F4CB3" transform="translate(43.000480, 18.365828) rotate(-313.000000) translate(-43.000480, -18.365828) "></path>
                            <mask id="mask-2" fill="white">
                                <use xlink:href="#path-1"></use>
                            </mask>
                            <use id="icon/pageRight" stroke="#2F4CB3" fill="#2F4CB3" transform="translate(7.973230, 62.414550) rotate(-139.000000) translate(-7.973230, -62.414550) " xlink:href="#path-1"></use>
                        </g>
                    </g>
                </g>
            </g>
        </g>
    </g>
</svg>