<?xml version="1.0" encoding="UTF-8"?>
<svg width="63px" height="70px" viewBox="0 0 63 70" version="1.1" xmlns="http://www.w3.org/2000/svg" xmlns:xlink="http://www.w3.org/1999/xlink">
    <!-- Generator: Sketch 53 (72520) - https://sketchapp.com -->
    <title>0_home_page_icon_agile_acquistions</title>
    <desc>Created with Sketch.</desc>
    <g id="Playbook" stroke="none" stroke-width="1" fill="none" fill-rule="evenodd">
        <g id="0-Start-Page---version-4" transform="translate(-194.000000, -1524.000000)">
            <g id="0_home_page_icon_agile_acquistions" transform="translate(196.000000, 1524.000000)">
                <g id="Group" transform="translate(22.538462, 7.876404)" stroke="#2F4CB3" stroke-linecap="round" stroke-width="4.61538462">
                    <path d="M0.122879581,53.6879346 L0.122879581,53.6879346 C14.9920844,53.6879346 27.0459565,41.7153246 27.0459565,26.9463616 C27.0459565,12.1773986 14.9920844,0.204788564 0.122879581,0.204788564" id="Path"></path>
                </g>
                <g id="Group-Copy-2" transform="translate(1.615385, 1.000000)" fill="#2F4CB3">
                    <ellipse id="Oval-Copy-3" cx="5.76923077" cy="3.65308989" rx="3.34987593" ry="3.65308989"></ellipse>
                    <path d="M4.96130914e-16,12.8872893 C0.191842606,9.60178659 2.69619721,7.00175562 5.75741696,7.00175562 C8.8186367,7.00175562 11.3229913,9.60178659 11.5148339,12.8872893 L-1.17683641e-14,12.8872893 Z" id="Combined-Shape-Copy"></path>
                </g>
                <g id="Group-Copy-3" transform="translate(0.846154, 45.606742)" fill="#2F4CB3">
                    <ellipse id="Oval-Copy-3" cx="5.76923077" cy="3.65308989" rx="3.34987593" ry="3.65308989"></ellipse>
                    <path d="M4.96130914e-16,12.8872893 C0.191842606,9.60178659 2.69619721,7.00175562 5.75741696,7.00175562 C8.8186367,7.00175562 11.3229913,9.60178659 11.5148339,12.8872893 L-1.17683641e-14,12.8872893 Z" id="Combined-Shape-Copy"></path>
                </g>
                <path d="M7.11166253,17.3370787 L6.84615385,42" id="Line-4" stroke="#2F4CB3" stroke-width="4.61538462" stroke-linecap="round"></path>
                <path d="M1,61.7038482 L54.4162541,61.7038482" id="Path-2-Copy" stroke="#2F4CB3" stroke-width="4.68864469" stroke-linecap="round"></path>
                <path d="M56.1255256,56.1131084 L62.9672871,65.2566841 C63.2997232,65.7009638 63.2090562,66.3306163 62.7647765,66.6630525 C62.5910267,66.7930624 62.3798535,66.8633226 62.1628476,66.8633226 L48.4793247,66.8633226 C47.9244389,66.8633226 47.4746151,66.4134988 47.4746151,65.8586131 C47.4746151,65.6416072 47.5448754,65.4304339 47.6748852,65.2566841 L54.5166467,56.1131084 C54.8490829,55.6688288 55.4787355,55.5781617 55.9230151,55.9105979 C55.9998426,55.9680848 56.0680388,56.0362809 56.1255256,56.1131084 Z" id="Triangle-Copy" fill="#2F4CB3" transform="translate(55.321116, 61.286795) rotate(-270.000000) translate(-55.321116, -61.286795) "></path>
                <path d="M23.4639793,3.39398561 L30.3057407,12.5375613 C30.6381769,12.9818409 30.5475099,13.6114935 30.1032302,13.9439297 C29.9294804,14.0739395 29.7183072,14.1441998 29.5013013,14.1441998 L15.8177784,14.1441998 C15.2628926,14.1441998 14.8130688,13.694376 14.8130688,13.1394902 C14.8130688,12.9224843 14.8833291,12.7113111 15.0133389,12.5375613 L21.8551004,3.39398561 C22.1875365,2.94970595 22.8171891,2.85903891 23.2614688,3.19147509 C23.3382963,3.24896194 23.4064925,3.31715812 23.4639793,3.39398561 Z" id="Triangle-Copy" fill="#2F4CB3" transform="translate(22.659570, 8.567672) scale(-1, -1) rotate(-270.000000) translate(-22.659570, -8.567672) "></path>
            </g>
        </g>
    </g>
</svg>