<svg id="Layer_1" data-name="Layer 1" xmlns="http://www.w3.org/2000/svg" viewBox="0 0 62.38 45.45"><defs><style>.cls-1,.cls-2{fill:#2f4cb3;}.cls-2{fill-rule:evenodd;}</style></defs><title>0_start_page_icon_automated_App_modern</title><path class="cls-1" d="M59.64,9.32H3.48A2.66,2.66,0,0,0,.86,11.94V52.16a2.66,2.66,0,0,0,2.62,2.62H59.64a3.6,3.6,0,0,0,3.6-3.6V12.84A3.64,3.64,0,0,0,59.64,9.32Zm-36.16,28V29.24h15l1.41-.4-.63,3.37,8.36-5.36-8.44-5.29.63,3.37-1.4-.41h-15V14H59.12V41.67H23.48V37.33Zm-2.4-12.81H14.86v4.8h6.22V37.4H9c-.15,0-.23-.07-.23-.22v-21c0-.15.08-.22.23-.22H21.08ZM3.48,52.38a.19.19,0,0,1-.22-.22V11.94a.19.19,0,0,1,.22-.22h17.6v1.87H9a2.66,2.66,0,0,0-2.62,2.62v21A2.66,2.66,0,0,0,9,39.8H21.08v6.37H19.66v-1H13.74v1H7.53a1.2,1.2,0,1,0,0,2.39h6.21v1h5.92v-1h1.42v3.82Zm57.29-1.2a1.18,1.18,0,0,1-1.2,1.2H23.48v-6H60.84v4.79Z" transform="translate(-0.86 -9.32)"/><path id="Triangle-Copy" class="cls-2" d="M47.87,27.41l-8.59,5.88A1,1,0,0,1,38,33.12a.8.8,0,0,1-.19-.51V20.85a.91.91,0,0,1,.95-.86,1,1,0,0,1,.56.17L47.87,26a.81.81,0,0,1,.19,1.2A.77.77,0,0,1,47.87,27.41Z" transform="translate(-0.86 -9.32)"/></svg>