<svg id="Layer_1" data-name="Layer 1" xmlns="http://www.w3.org/2000/svg" viewBox="0 0 90 68.54"><defs><style>.cls-1,.cls-2{fill:#2f4cb3;}.cls-1{fill-rule:evenodd;}</style></defs><title>0_start_page_Icon_agile_Model-Driven</title><path class="cls-1" d="M90.49,39.4H86.25V73.7a3.61,3.61,0,0,1-3.61,3.62H18.26V80H90.49Zm-81,33.4H81.74V32.17H9.51ZM10.64,24a2.17,2.17,0,1,0,2.17-2.16A2.17,2.17,0,0,0,10.64,24ZM18,24a2.17,2.17,0,1,0,2.16-2.16A2.17,2.17,0,0,0,18,24Zm7.33,0a2.17,2.17,0,1,0,2.17-2.16A2.17,2.17,0,0,0,25.31,24ZM95,26.84V80.93a3.61,3.61,0,0,1-3.61,3.61h-74a3.61,3.61,0,0,1-3.62-3.61V77.32H8.61A3.62,3.62,0,0,1,5,73.7V19.61A3.61,3.61,0,0,1,8.61,16h74a3.61,3.61,0,0,1,3.61,3.61v3.62h5.14A3.61,3.61,0,0,1,95,26.84Z" transform="translate(-5 -16)"/><path class="cls-2" d="M61.46,39.92a3.31,3.31,0,0,0-2.33,1L41.9,58.17l-9.25-7.32A3.39,3.39,0,1,0,28.25,56l.19.15,11.62,9.19a3.38,3.38,0,0,0,4.49-.25L63.91,45.74a3.39,3.39,0,0,0-2.45-5.82Z" transform="translate(-5 -16)"/></svg>