<?xml version="1.0" encoding="UTF-8"?>
<svg width="65px" height="45px" viewBox="0 0 65 45" version="1.1" xmlns="http://www.w3.org/2000/svg" xmlns:xlink="http://www.w3.org/1999/xlink">
    <!-- Generator: Sketch 53 (72520) - https://sketchapp.com -->
    <title>0_home_page_icon_cloud</title>
    <desc>Created with Sketch.</desc>
    <g id="Playbook" stroke="none" stroke-width="1" fill="none" fill-rule="evenodd">
        <g id="0-Start-Page---version-4" transform="translate(-913.000000, -1125.000000)" fill="#2F4CB3" stroke="#2F4CB3">
            <g id="Row-2" transform="translate(195.000000, 1113.000000)">
                <g id="03" transform="translate(718.000000, 0.000000)">
                    <g id="Agile">
                        <g id="0_home_page_icon_cloud" transform="translate(1.000000, 13.000000)">
                            <path d="M7.0546875,16.2480916 C2.625,19.0381679 0,23.4694656 0,28.721374 C0,36.4351145 6.0703125,43 13.9453125,43 C25.921875,43 37.8984375,43 49.875,43 C57.09375,43 62.8359375,36.7633588 63,29.7061069 C63,23.6335878 59.5546875,18.7099237 53.8125,16.740458 C52.5,7.38549618 45.4453125,0 35.765625,0 C29.53125,0 24.4453125,2.95419847 20.8359375,7.8778626 C14.765625,6.40076336 9.0234375,10.6679389 7.0546875,16.2480916 Z M10.6913947,19.0967742 L11.0178042,18.1013825 C11.8338279,13.2903226 16.5667656,10.4700461 21.1364985,11.9631336 L22.6053412,12.6267281 L23.421365,11.2995392 C26.0326409,6.8202765 30.6023739,4 35.8249258,4 C43.6587537,4 50.0237389,10.6359447 50.0237389,18.764977 L50.0237389,20.2580645 L51.4925816,20.4239631 C55.8991098,21.2534562 59,25.4009217 59,29.8801843 C59,35.1889401 55.0830861,39.6682028 49.8605341,39.6682028 L14.1186944,40 C8.40652819,40 4,34.8571429 4,29.2165899 C4,25.0691244 6.12166172,21.2534562 10.0385757,19.59447 L10.6913947,19.0967742 Z" id="Shape"></path>
                        </g>
                    </g>
                </g>
            </g>
        </g>
    </g>
</svg>