<?xml version="1.0" encoding="UTF-8"?>
<svg width="64px" height="63px" viewBox="0 0 64 63" version="1.1" xmlns="http://www.w3.org/2000/svg" xmlns:xlink="http://www.w3.org/1999/xlink">
    <!-- Generator: Sketch 53.1 (72631) - https://sketchapp.com -->
    <title>agile</title>
    <desc>Created with Sketch.</desc>
    <g id="Page-1" stroke="none" stroke-width="1" fill="none" fill-rule="evenodd">
        <g id="agile" transform="translate(1.000000, 0.000000)">
            <path d="M2.35210503,55.4292453 L56.7582418,55.4292453" id="Path-2-Copy" stroke="#2F4CB3" stroke-width="4" stroke-linecap="round"></path>
            <path d="M28.1845995,2.27486699 L34.0657465,10.0816557 C34.3505856,10.4597587 34.2749804,10.9971794 33.8968774,11.2820186 C33.7482474,11.3939871 33.5672161,11.4545455 33.3811305,11.4545455 L21.6188366,11.4545455 C21.1454497,11.4545455 20.7616938,11.0707895 20.7616938,10.5974026 C20.7616938,10.411317 20.8222521,10.2302857 20.9342207,10.0816557 L26.8153676,2.27486699 C27.1002067,1.89676404 27.6376275,1.82115879 28.0157305,2.10599793 C28.0796245,2.1541317 28.1364658,2.21097297 28.1845995,2.27486699 Z" id="Triangle" fill="#2F4CB3" transform="translate(27.500000, 6.727273) rotate(-90.000000) translate(-27.500000, -6.727273) "></path>
            <path d="M58.1845995,51.274867 L64.0657465,59.0816557 C64.3505856,59.4597587 64.2749804,59.9971794 63.8968774,60.2820186 C63.7482474,60.3939871 63.5672161,60.4545455 63.3811305,60.4545455 L51.6188366,60.4545455 C51.1454497,60.4545455 50.7616938,60.0707895 50.7616938,59.5974026 C50.7616938,59.411317 50.8222521,59.2302857 50.9342207,59.0816557 L56.8153676,51.274867 C57.1002067,50.896764 57.6376275,50.8211588 58.0157305,51.1059979 C58.0796245,51.1541317 58.1364658,51.210973 58.1845995,51.274867 Z" id="Triangle-Copy" fill="#2F4CB3" transform="translate(57.500000, 55.727273) rotate(-270.000000) translate(-57.500000, -55.727273) "></path>
            <path d="M17.4698795,7.60603326 C8.19316458,10.2602689 1.39759036,18.8685758 1.39759036,29.0781791 C1.39759036,38.5566801 7.25475917,46.6550088 15.5167362,49.8901242" id="Shape" stroke="#2F4CB3" stroke-width="4" stroke-linecap="round" transform="translate(9.433735, 28.748079) rotate(2.000000) translate(-9.433735, -28.748079) "></path>
            <path d="M28,55 C41.254834,55 52,44.0309764 52,30.5 C52,16.9690236 41.254834,6 28,6" id="Path" stroke="#2F4CB3" stroke-width="4" stroke-linecap="round"></path>
        </g>
    </g>
</svg>