<?xml version="1.0" encoding="UTF-8"?>
<svg width="28px" height="28px" viewBox="0 0 28 28" version="1.1" xmlns="http://www.w3.org/2000/svg" xmlns:xlink="http://www.w3.org/1999/xlink">
    <!-- Generator: Sketch 53.1 (72631) - https://sketchapp.com -->
    <title>icon/search</title>
    <desc>Created with Sketch.</desc>
    <defs>
        <path d="M11.7889693,19.2378949 L3.82192125,27.2049429 L0.81085375,24.1938754 L8.78358837,16.2211408 C7.78390426,14.6620064 7.20416667,12.8077297 7.20416667,10.8208333 C7.20416667,5.30833333 11.6666667,0.845833333 17.1791667,0.845833333 C22.6916667,0.845833333 27.1833333,5.3375 27.1833333,10.85 C27.1833333,16.3625 22.6916667,20.825 17.1791667,20.825 C15.1928984,20.825 13.3429527,20.2418421 11.7889693,19.2378949 Z M17.1791667,3.675 C13.2416667,3.675 10.0041667,6.88333333 10.0041667,10.85 C10.0041667,14.8166667 13.2125,18.025 17.1791667,18.025 C21.1458333,18.025 24.3541667,14.8166667 24.3541667,10.85 C24.3541667,6.88333333 21.1458333,3.675 17.1791667,3.675 Z" id="path-1"></path>
    </defs>
    <g id="Page-1" stroke="none" stroke-width="1" fill="none" fill-rule="evenodd">
        <g id="BP1_dark" transform="translate(-325.000000, -19.000000)">
            <g id="icon/search" transform="translate(325.000000, 19.000000)">
                <g>
                    <mask id="mask-2" fill="white">
                        <use xlink:href="#path-1"></use>
                    </mask>
                    <use id="Combined-Shape" fill="#010101" fill-rule="nonzero" xlink:href="#path-1"></use>
                    <g id="color/#ffffff" mask="url(#mask-2)" fill="#FFFFFF">
                        <rect x="0" y="0" width="28" height="28"></rect>
                    </g>
                </g>
            </g>
        </g>
    </g>
</svg>