<svg xmlns="http://www.w3.org/2000/svg" viewBox="0 0 117.88 103.1"><defs><style>.cls-1{fill:#fff;}</style></defs><title>Asset 1</title><g id="Layer_2" data-name="Layer 2"><g id="Layer_1-2" data-name="Layer 1"><path class="cls-1" d="M65.62,79.22a6.68,6.68,0,1,1-6.68-6.68,6.68,6.68,0,0,1,6.68,6.68Z"/><polygon class="cls-1" points="57.69 58.38 54.25 68.94 9.61 36.52 0 16.47 57.69 58.38 57.69 58.38"/><polygon class="cls-1" points="53.35 71.6 35.2 71.45 21.72 61.66 12.07 41.6 53.35 71.6 53.35 71.6"/><path class="cls-1" d="M59,90.71l8.35,6.19s-8.4,6.2-8.4,6.2-6-4.44-8.48-6.21c0,0,8.55-6.16,8.53-6.18Z"/><polygon class="cls-1" points="117.88 16.47 108.24 36.54 63.62 68.94 60.19 58.37 117.88 16.47 117.88 16.47"/><polygon class="cls-1" points="105.81 41.6 96.17 61.68 82.39 71.76 64.51 71.61 105.81 41.6 105.81 41.6"/><polygon class="cls-1" points="67.89 82.23 74.72 77.29 85.95 85.45 72.25 95.42 67.89 82.23 67.89 82.23"/><polygon class="cls-1" points="109.71 0 116.51 14.15 95.61 29.33 109.71 0 109.71 0"/><polygon class="cls-1" points="7.79 0.12 0.87 14.21 21.65 29.57 7.79 0.12 7.79 0.12"/><polygon class="cls-1" points="43.42 77.21 50.13 82.31 45.58 95.43 32.06 85.22 43.42 77.21 43.42 77.21"/></g></g></svg>